<svg xmlns="http://www.w3.org/2000/svg" width="1399.925" height="1392" viewBox="0 0 1399.925 1392">
  <g id="Component_5_5" data-name="Component 5 – 5" transform="translate(0 0)">
    <path id="Path_1" data-name="Path 1" d="M1113.343,1352.518l93.739,18.2-3.787,21.181h17.043l40.873-231.739,9.469,231.739h16.886l-3.156-78.135,42.924-1.255,4.419,79.391h8.364l-4.419-79.547,64.228-1.726V1294l-52.866,1.412-4.1-28.085,56.969,1.725v-8.316l-58.232-1.726-7.89-54.443,34.4-37.656,31.562,19.926v-10.041l-25.881-16.317,25.881-28.4v-12.395l-67.7,74.37c-3.629-20.554-12.625-72.958-16.412-95.081l84.27,14.278V1096.3l-41.977-7.217,9.942-62.289c11.2,2.354,21.936,4.55,32.036,6.59v-17.1l-23.987-4.864,23.987-30.281V954l-42.293,53.659-54.76-11.3,23.356-162.86,73.539,13.18V818.437l-7.733-1.412,7.733-52.561V649.929l-8.522,58.052-78.273-18.828c3.945-20.554,14.36-75,18.306-95.708l68.489,12.866V589.366l-44.187-8.316L1390.456,392.3l9.311,1.726v-28.4l-22.882-4.236,6.154-42.519,16.728-3.452V306.95l-15.465,3.138,13.572-93.825,1.893.314V6.96l-5.05,34.674-52.393,3.138L1339.957.057h-8.364l2.525,45.344-44.5,2.667L1287.565.057h-16.886l2.051,49.109-61.7,3.766L1220.338.057h-17.043l-9,51.306L1101.192,26.73,1106.084.057h-28.405l-9.469,51.149-64.07,10.826L996.249.057H979.363L987.411,64.7l-62.65,10.512L897.934,20.767c15.939-4.55,42.766-12.395,71.8-20.711H909.612L890.517,5.548,887.676.057H856.43l6.47,13.179c-9.784,2.667-22.882,6.276-35.823,9.885-2.051-5.648-4.892-13.964-8.206-23.221h-8.837l9,25.417c-15.623,4.236-29.51,8.159-35.034,9.728L743.6,22.493,746.279.057h-8.522l-2.209,19.926-51.6-15.847,1.42-4.079H667.532l-6.786,18.357L616.56.057H601.095L587.366,35.045,524.084,13.236q4.024-6.59,7.575-13.179H512.091A347.022,347.022,0,0,1,481.318,45.4L473.743.057H456.7l2.052,12.552L416.616,37.556,394.365.057h-9.784l52.235,88.02c-1.262.784-2.525,1.726-3.63,2.51-16.728,10.826-38.505,18.828-63.439,24.79L378.111.057h-8.364l-8.522,117.36c-9.153,2.04-18.621,3.609-28.406,5.178L323.667.057H306.781l3,41.421L208.939,29.24,208.308.057H191.422l.631,27.3-23.2-2.824L143.922.057H131.928l23.356,22.75-84.9-10.2L71.961.057H63.439L62.019,11.51,28.248,7.431l1.1-7.374H.947L0,6.96V216.576l72.592,13.179,12.467,59.621L0,306.95v8.472l25.407-5.335,8.206,61.818L0,365.629v28.4l36.927,6.9L8.837,590.621,0,589.052V606l6.312,1.255L0,649.929V764.464L22.882,610.391l79.062,14.748L80.956,832.872,0,818.437v28.242l74.328,13.179L0,954v26.987l73.7-93.511-20.2,139.8L0,1016.286v17.1c21.62,4.393,39.768,8.159,51.13,10.512l-8.522,59.621L0,1096.3v16.945l5.05.942L0,1119.525v12.4L14.834,1115.6,40.241,1120l-10.889,75.311L0,1176.792v9.885l28.09,17.729-8.206,56.8L0,1260.576v8.316l18.621.628-3.472,23.848L0,1293.839v16.631l12.783-.314L.947,1391.743H29.195l11.52-80.332,32.035,4.236-9.469,76.1H71.8l6.47-52.09,53.655,52.09h11.993l-64.228-62.6,1.578-12.4L190,1331.18l1.42,60.563h16.886l-1.42-58.366,96.579,12.865,3.314,45.5h16.886l-1.736-23.378,50.183-8.472-2.367,32.007h8.364l.631-9.571,5.681,9.571h9.784l-14.361-24.319.631-9.1,68.647-11.61,7.575,45.03h17.043l-23.671-141.208,119.619,9.1c-13.1,39.852-32.351,88.8-57.6,132.108h19.568a621.149,621.149,0,0,0,27.617-56.483l55.549,21.181-13.887,35.3H616.4l-5.523-2.353,27.932-71.075,51.13,11.924-22.409,61.347h17.832l42.609-116.418,23.2-2.824-13.414,119.4h8.522l5.365-47.7,38.032-10.355,20.515,58.052h8.837c-7.891-22.123-17.675-49.894-21.3-60.249l25.565-6.9,33.14,67.152h31.246l-14.2-28.869,111.413-34.36-6.155,43.3-69.12,19.77h60.125c3.156-.942,6.155-1.726,9.311-2.667l.316,2.667h16.886l-.947-7.375c34.245-9.884,68.016-19.612,88.216-25.574l-6.155,32.949h28.406Zm-15.15-72.173-87.742-11.925,8.837-61.661,89.635,15.219ZM910.559,1171.458l6-33.89,93.265,17.416-4.734,32.478Zm92.16,32.478-3.787,26.359-61.7-8.786,6.154-27.457Zm-311.357-32.949-41.346-1.1,6.312-35.459,35.034,16.788a65.627,65.627,0,0,0-.789,9.728A42.486,42.486,0,0,0,691.362,1170.988Zm12.783,28.241a55.892,55.892,0,0,0,7.417,7.531L680,1248.024l-29.826-50.364Zm-2.209-73.742-79.694-38.126,86.637-31.537,13.1,51.933A61.633,61.633,0,0,0,701.935,1125.487ZM149.13,1037.153l10.258-22.907L286.9,983.965l-18.148,63.23Zm115.516,26.516-8.522,43.461-31.088-7.845,2.209-38.754ZM87.111,142.991c28.248,2.04,61.23,3.922,95.632,4.393l-.316,8.316-99.42,30.6Zm-34.4-19.769,9.469-52.875L153.548,81.8c-.947,9.885-3.472,34.674-4.734,47.7C112.2,128.086,78.747,125.732,52.708,123.222ZM269.38,234.62,280.269,330.8c-24.934,2.824-99.893,11.454-126.563,14.592L165.384,244.5Zm-87.426-69.977-2.683,61.818-21.146,2.04-19.568-3.609-5.681-45.187Zm99.1,174.471L285,373.788,148.341,390.419l4.261-36.557Zm575.688-6.747L841.28,386.811l-63.755,24.476c-9.311-25.888-16.728-51.306-20.831-66.682Zm-87.584-52.561,48.921-5.962,5.365,34.518-50.341,6.119Zm243.184,354.119-59.178-13.807,29.51-91.785,50.814,9.414C1029.862,554.692,1020.867,595.642,1012.345,633.925Zm29.51-94.766,62.492,11.611L1022.6,626.708ZM483.685,558.3l96.737-9.1L591,590.935l-115.832,3.452Zm0-72.644,88.531,30.752,4.1,16.317-85.375,8Zm440.13,134.3L908.034,669.07l-68.963-27.143,18.464-45.971Zm-63.282-31.693,15.939-39.852c23.671,13.493,46.711,25.417,59.967,32.007l-10.1,31.536ZM815.4,655.891l-32.351-27.3,38.979-54.914,20.357,14.748Zm-3.314,8.159-1.578,3.922-81.43,6.9-40.872-54.13L728.762,593.6Zm-91.214,14.121-68.8,39.381-15.781-61.975,44.975-29.968C688.679,635.494,712.666,667.188,720.872,678.171ZM683,614.156c-3.472-4.393-10.1-12.709-14.834-18.671l33.929-24.319,19.884,16.788Zm-6.944,4.707-41.977,28.085-5.839-22.75,33.14-23.692ZM630.763,747.206,556.751,725.4,612.3,674.719Zm-83.481-24.633-95.475-28.242L473.27,602.7,593.2,599.251l16.886,66.368ZM443.444,545.278l-13.1-110.3,37.4-5.491L482.58,541.512Zm-.789,16.788,32.193-2.981-15.465,66.054-31.878-10.2ZM457.489,633.3l-13.729,58.68-35.191-10.355L425.3,623.1Zm-9.153,77.508L402.887,833.813l-33.771-13.964,34.876-122.224Zm8.048,2.354L500.1,726.024,481.318,781.88c-12.467-3.765-35.665-10.983-45.133-13.964Zm38.19,81.9c8.522,2.981,23.356,8.159,40.872,14.278L507.83,872.253l-37.559-4.393Zm2.525-8,18.937-56.326,64.86,19.141-15.623,60.877Zm91.845-34.675,46.4,13.807,19.253,75.782-81.429-28.4Zm65.175-26.359,35.823-20.554L707.458,767.6l-45.765-11.61Zm43.4-24.947,30.931-17.729,78.747-6.747L764.9,781.88,717.085,769.8ZM801.67,735.438l37.716,12.552-13.572,49.737-44.5-11.3Zm3-7.845,31.246-77.821,69.436,27.3-24.46,75.782Zm103.681,31.38,70.383,12.552-59.021,97.9-36.3-32.792Zm8.679-26.673,33.613-104.337,59.968,14.121c-6,27.457-11.52,52.247-14.045,64.172l-52.392,30.909Zm100.84-84.1,25.091,30.438-36.454,21.5Zm-76.222-83.784c-27.932-14.121-91.372-47.383-120.566-72.33a48.314,48.314,0,0,1-4.1-3.922l67.542-57.582,75.748,76.1ZM839.86,446.746,817.767,404.7l26.038-10.042,28.563,24.162Zm-6.628,5.648-26.354,22.593c-9.784-14.905-18.779-35.145-26.512-55.7l29.51-11.3Zm-23.04,52.4c12.94,11.14,31.878,23.535,51.6,35.145l-16.1,40.323-77.8-56.013,35.98-25.731A79.135,79.135,0,0,0,810.192,504.8Zm5.05,63.857L776.579,623.1l-67.385-56.8,51.446-36.871ZM712.666,543.238l-14.992-49.58,37.243-17.729,15.623,40.323ZM695.149,485.5l-11.994-39.538,26.354-35.616,22.409,57.582Zm3.156,67.937-74.328,53.188L597.15,500.719l80.64-15.376ZM594.94,492.717,563.379,367.983l75.906-9.257,35.98,118.458Zm-25.249,13.964L482.422,476.4l-6.312-48.168,71.014-10.512ZM429.4,426.663l-5.05-41.735,110.94-13.493,9.784,38.283Zm-9.942-69.192-8.522-36.087,118.515,5.491,4.419,16.631Zm6,178.393-79.694-91-3.314-49.894,65.175-8ZM339.29,367.2l-5.681-35.773c22.567-3.452,47.974-7.374,60.441-9.257l8.837,37.342Zm-5.208,28.712,3.156,46.913-35.349,3.452,1.262-46.442Zm5.839,54.914L424.191,547l-125.3,11.767,2.683-104.337C312.935,453.492,333.293,451.453,339.921,450.825Zm84.744,112.967-69.12,241.78-33.929-18.985,72.119-219.971ZM364.381,836.01l86.479,35.93-9.626,28.712-84.428-38.44Zm46.08,1.1,22.567-61.19,45.449,13.964-22.251,66.211Zm56.811,38.6,38.19,4.55-8.68,56.326-40.557-27.614Zm47.027,2.04L543.337,812c22.882,8,49.079,17.1,71.645,24.947L589.575,965.765,557.382,978l-53.024-36.244Zm127.826,85.823,14.2,50.678-59.81,24.79-27.3-47.7Zm-43.24-1.412L623.03,839.619c13.729,4.707,25.723,8.943,34.245,11.924l20.515,80.646Zm67.542-187.807,93.423,23.692-24.145,31.693-51.6,14.591Zm102.418,26.045,88.215,22.436-98.315,49.737-15.623-38.44Zm65.017-.784L847.277,750.5l31.088,10.355-14.992,46.285Zm46.712,45.814,78.9,71.075-5.839,11.14c-39.926-7.688-74.959-14.278-93.739-17.886Zm45.449,29.654,61.546-101.984,42.609,7.688L963.267,908.811Zm112.991-92.884,13.572,2.51-26.512,156.741c-21.3-4.079-43.082-8.316-63.913-12.238Zm4.734,105.592,69.12,16.474-8.364,52.247c-20.831-3.923-44.975-8.63-70.067-13.337Zm10.415,76.1,46.87,8.943-20.831,86.294-38.664-7.845Zm55.233,10.512,43.871,8.316-16.254,87.706-48.448-9.728Zm3.314-16.317,8.364-52.561,45.765,3.609-10.573,57.268C1146.01,964.352,1130.86,961.528,1112.712,958.077Zm9.626-60.876,5.681-35.145,46.4,6.433-6,32.478Zm6.943-43.461,8.522-53.816,47.5,8.472-9.626,51.776Zm-15.15,42.206-68.963-16.317,15.781-93.354,68.8,12.238ZM969.421,741.557l84.27-49.737,62.335,75.939Zm91.529-54.13,109.52-64.8,24.46,29.654-109.677,64.485ZM1050.22,674.4l-28.879-35.145,92.318-85.509,46.08,56.013Zm66.753-182.159-65.649-8.629c2.051-12.4,3.945-23.849,4.892-29.811l64.86,13.023Zm-1.263,8.316-5.523,34.361-65.175-12.238c1.262-7.531,3.156-19.142,5.05-30.909Zm-79.062,20.711-48.763-9.1,21.778-67.623,38.347,7.688Zm-70.541-32.478L897.3,419.6l53.813-45.971,44.66,22.75Zm-87.268-75.468-29.51-24.947,16.254-57.111L965.95,319.031a60.778,60.778,0,0,0,6.154,14.748Zm-38.663-107L826.92,221.44l56.969-8.786L897.3,299.418Zm-46.4,178.864-36.138,25.888L715.507,402.5l28.879-38.911C754.012,397.166,771.844,452.08,793.78,485.186ZM680.157,436.077,656.17,356.843l83.639-10.2c.473,2.04,1.1,4.236,1.736,6.59ZM666.9,327.346l-26.986,3.295L593.994,257.37l73.066-11.3Zm-36.138,4.393L560.7,340.212l27.774-75.939Zm-83.481-3.609L509.723,183.941l80.167,28.085ZM527.4,318.4l-65.175-2.981-17.359-97.434,55.075-5.178Zm-73.855-3.452-44.5-2.04-20.989-89.589,48.29-4.55Zm-61.388-.941-59.967,9.1-5.681-35.773,57.6-7.688ZM330.926,368.3l-29.195,3.609-3.945-34.988c6.47-.941,16.412-2.51,27.459-4.236ZM298.417,575.716l86.164-8.159L340.71,701.235l-45.133-18.357Zm39.768,133.52-24.46,74.683-20.515-3.295,2.367-88.647Zm-27.143,82.685L291.316,852.17l1.578-63.23C298.89,789.882,306.307,791.137,311.042,791.921Zm7.89,2.824,34.245,19.142-36.3,127.088L289.264,927.8l1.263-46.285ZM354.6,870.371l83.954,38.283-26.2,77.978-80.009-38.283Zm98.789,46.756,94.528,64.485-81.429,30.909L427.5,993.849Zm10.573,125.048,74.644,35.773-19.411,36.086-66.28-14.277Zm23.356-19.612,74.013-28.085,27.459,47.854-32.351,13.336ZM658.7,1022.4l10.889,38.911-57.758,21.024-45.291-21.809Zm-8.68-61.818,31.72-12.081,25.092,99-29.51,10.669Zm36.3-108.1,49.552-13.964,47.5,116.575-65.806,20.4Zm75.59,27.771,93.265-47.226L805.458,987.26Zm92.792,45.5,79.851,15.219L919.238,1026.8l-91.214-18.357Zm78.116,120.812,89.951,18.044-6.943,48.795-86.953-44.716Zm2.841-16.475,15.308-85.98,86.795,16.631-12.625,87.392Zm103.681,37.813,94.685,18.985-9.311,50.521-92.792-18.2Zm105.417,114.222,40.557,5.178-12.625,64.171-39.926-5.021Zm1.578-8.159,18.621-100.729,41.5,7.06-19.41,98.846Zm21.62-117.2L1180.57,988.2c13.1,2.667,34.718,7.217,60.283,12.395l-14.992,65.9Zm15.781-84.882,15.623-84.725,100.209,13.964L1286.3,993.065Zm12.467-189.847-67.542-12.081-38.19-46.442,109.677-64.485,16.254,19.769Zm35.823-95.394,69.594,16.788c-3.945,19.455-13.887,69.82-18.779,94.139l-70.067-12.552Zm-11.362-29.183L1138.277,557.2l98.473,18.357Zm-94.054-119.4,16.57-102.611,117.568,16.945-20.989,106.848Zm63.123-112.81,9.626-68.565,77.327,14.435-12.782,64.8ZM1195.4,327.5l-31.72-5.962,10.1-56.8,32.035,3.452Zm-4.261,27.614c-2.683,19.142-7.417,53.188-9.626,68.878l-35.507-5.178,11.362-70.134Zm-44.029-36.557-60.6-11.3c0-1.255.158-2.353.158-3.609a62.671,62.671,0,0,0-5.05-24.319l57.127-34.2,15.623,33.419Zm-6.47,27.143L1122.5,458.513l-110.151-21.966,23.513-72.958a61.317,61.317,0,0,0,42.451-29.5Zm-115.358-9.1a33.106,33.106,0,1,1,33.3-33.105A33.208,33.208,0,0,1,1025.286,336.6Zm-18.306,25.1L998.3,388.38l-40.4-20.554,24.461-20.868A62.569,62.569,0,0,0,1006.98,361.707Zm-41.5-70.6-59.652,7.217L892.253,211.4l63.755-9.885,28.09,57.111A60.932,60.932,0,0,0,965.476,291.1ZM813.19,206.692l-4.261-33.262,121.829-22.907,17.359,35.3Zm-2.841,17.416,6.47,41.578-48.605,5.805-4.576-40.166ZM764.9,315.579,675.423,326.4l.158-81.587,79.851-12.395Zm-86.637-88.02,28.721-102.3L742.334,138.6l-20.357,82.215Zm-9.153,1.412-71.8,11.14,50.341-137.129,51.446,19.3Zm-76.38-24.79-41.188-14.435,14.518-51.619,44.187,18.2Zm-49.079-17.259L507.2,174.057l-17.675-67.78,68.8,28.555Zm-48.132,9.414L380.636,207.319l-5.208-36.871L483.054,149.11ZM382.056,271.491l-56.969,7.531L317.2,230.069l53.971-5.178Zm-63.913,16.945,5.839,35.93L297,328.445l-4.1-36.714Zm-26.354-4.864-5.681-50.521,22.725-2.2,7.89,49.266Zm-5.681,118.144-1.263,45.971c-13.414,1.255-40.241,3.609-51.13,4.55l1.736-44.4ZM216.672,674.4l-1.42,37.656c-9.469-.314-32.035-1.1-41.5-1.569l1.736-39.068Zm-38.032-19.3,41.5-66.682-2.683,69.349Zm36.3,65.27L213.2,765.092c-13.729-2.667-27.932-5.491-41.5-8.159l1.736-38.126Zm-2.367,53.188-6.944,56.013-43.871-11.3,8.837-52.875ZM210.2,860.957l24.46,6.119-2.525,33.106L206.73,888.1Zm1.1-8.315,9.626-77.508,20.515,4.079-6,79.548Zm38.19-71.859,26.67,5.178-3.472,133.677L240.343,904.1Zm-27.932-13.964,1.736-45.971c10.889.628,40.083,2.354,54.444,3.138l-1.42,53.5C265.277,775.29,244.6,771.211,221.564,766.818Zm2.052-54.287,1.42-37.5,53.813,3.765-.947,36.714Zm2.209-54.13,3.156-81.744,52.708-3.766-2.367,89.275Zm3.472-90.216,1.262-32.792,52.077,1.412-.789,27.614Zm1.894-49.58,2.209-58.052L284.53,456l-1.578,64.014ZM151.023,418.19l76.222-9.257-1.736,43.775-77.958-.784Zm74.17,42.676-2.209,57.425-81.9-2.04,5.681-56.013Zm-3,74.213-1.42,36.243-26.828,42.99L138.241,544.18l1.1-11.453ZM189.371,622l-20.2,32.321-41.662-2.981,9.626-95.237ZM167.12,670.953l-3.787,84.411c-18.306-3.608-34.718-6.746-45.449-8.943l7.89-78.449ZM113.307,512.329l-33.771-4.707,16.728-95.551,26.67,5.021Zm3.63,242.564,45.449,8.943-16.1,95.394-38.032-18.2Zm43.555,71.546,44.187,11.453L199,884.334,154.337,863Zm42.451,90.687,90.582,43.461-4.1,14.278-125.774,29.811ZM301.258,964.2l44.5,21.338-19.568,66.525-49.079-4.079Zm59.81,28.712,38.348,18.357-28.09,116.575-48.29-5.021Zm66.6,149.21-4.1,21.338-111.729-3.138,8.68-29.34Zm-47.974-13.493,27.459-113.751,41.188,19.769L429.241,1133.8Zm71.645-20.554,118.988,25.575-4.261,33.89L440.6,1163.927Zm76.38,7.845,18.464-34.2,41.346,19.769-14.676,24.162ZM579,1131.763l16.254-26.516,53.024,25.418-6.943,38.91-66.911-1.883Zm172.643-3.922a33.106,33.106,0,1,1-33.3,33.105A33.208,33.208,0,0,1,751.645,1127.841Zm16.728-25.418a59.017,59.017,0,0,0-16.728-2.354H749.12L719.452,983.494l66.911-20.711,14.992,36.871Zm54.444-77.978,93.423,18.828-1.42,8.159-113.465,74.056a65.133,65.133,0,0,0-8.206-9.257Zm89.951,38.283-18.779,105.906-81.429-13.807a58.45,58.45,0,0,0-6.786-22.123Zm22.409,129.755-6.312,27.771-74.8-10.669,14.361-28.241Zm-17.2-63.23,9.311-51.933,87.269,44.873-3.472,24.633Zm193.948,76.253-90.267-15.376,9-62.759,92.318,18.043Zm42.924,137.914-38.506-7.531,14.992-81.273,39.768,5.021Zm55.075,10.826-38.663-7.531,24.461-125.048,36.138,8Zm23.513-132.892-35.98-7.845,25.565-130.382,33.771,5.806Zm104.943,74.056-54.76,1.569-1.42-35.93,44.344-48.638C1329.226,1231.393,1335.7,1276.423,1338.379,1295.407Zm-13.414-93.668-43.24,47.383-6.47-157.212,31.562,5.335Zm26.354-178.236-10.1,62.759-106.995-18.2,14.834-65.74C1280.778,1008.912,1317.391,1016.443,1351.319,1023.5Zm-50.657-130.7L1200.77,879l12.151-65.583,96.737,17.259Zm32.982-86.294-42.609-7.531,8.679-43.775,41.819,8.316Zm41.819,7.531-33.613-5.962,8.048-42.99,31.877,6.433Zm13.256-89.589-5.681,38.754-81.587-16.317,8.206-41.578Zm-83.954-37.5-69.594-16.788,17.99-91.628,69.909,13.023Zm42.609-107.632-91.056-16.945,15.149-77.508,89.951,18.043Zm46.238-529.217-9.626,67-37.559-.628-3.472-63.23Zm-47.658,83.156,35.507.628-19.095,132.265L1333.645,266Zm-12.94,141.051,28.248.157-11.836,81.9-23.671-4.393Zm-15.623,76.1-15.781-2.981-8.837-215.107,44.66.784Zm17.043-296.694,3.472,62.6-45.765-.785-2.367-58.994ZM1293.246,374.1l89,16.631L1363,494.6l-89.951-18.043Zm-8.522-29.811-80.956-15.062c3.156-18.2,8.522-49.266,10.415-60.092l67.858,7.217Zm-3.156-76.566-106.521-11.3,7.89-45.187,96.106-.941ZM1209.607,61.4l63.439-3.922,2.525,62.132-76.222-.628Zm-11.678,65.9,77.958.628,3,74.213-94.37.941Zm-98.315-92.256,93.107,24.633-10.1,56.8-93.265-27.3Zm81.745,89.746-22.093,124.891L1088.409,97.491Zm-98.473.628,52.235,112.025L1077.678,271.8a62,62,0,0,0-18.306-18.985Zm-16.412-65.426-33.929,183.257c-2.052-.157-3.945-.314-6-.471L1005.086,70.19ZM988.516,73.015l21.462,171.647a3.733,3.733,0,0,1-1.263.314L928.707,83.056Zm-117.884-44.4,56.338,114.222-55.549,10.512L832.759,39.125Zm-46.08,12.709c8.048,23.535,32.035,94.766,38.505,113.437l-55.233,10.355L793.149,49.95Zm-28.09,168.038-65.649,10.2,19.253-77.821,39.61,14.905Zm-7.891-62.132-78.9-29.811,18.622-40.48L782.1,96.392ZM740.283,38.968l35.98,11.14L781,86.978l-49.71-17.886ZM678.106,19.826l54.129,16.631-10.1,33.576-20.2,44.245L650.489,94.823ZM607.881,5.548l50.026,20.711L647.175,55.6,595.256,37.712Zm-17.99,48.011,51.446,17.729-28.248,77.194-44.66-18.514ZM514.931,27.828,582,50.892l-21.462,75.939L486.683,96.392,480.371,72.23C493,58.894,504.358,43.831,514.931,27.828ZM420.877,44.773,460.329,21.4l6.786,40.48a210.852,210.852,0,0,1-23.356,21.338Zm21.462,59.935a183.086,183.086,0,0,0,24.3-18.828L481,141.108,374.323,162.29l-4.1-29.5C398.468,126.046,423.244,116.946,442.339,104.708Zm-80.325,29.654L372.43,208.1,260.7,218.773l-5.523-72.016C292.42,144.874,329.19,141.108,362.014,134.362ZM311.2,58.58l4.892,66.368c-33.3,4.079-69.278,5.648-104.627,5.805l-2.052-84.411Zm-64.544,88.334,5.681,72.487-64.544,6.119,3.314-77.978C209.413,147.7,228.034,147.541,246.656,146.913ZM166.646,41.007l25.881,3.138.789,34.2L162.7,74.584C163.648,67.052,165.542,50.892,166.646,41.007Zm26.985,45.814,1.1,43.775c-12.625-.157-25.249-.314-37.4-.784l4.576-47.069ZM25.881,23.905l132.56,16L154.5,73.485,21.146,56.854Zm-6,41.264,33.929,4.236-9.469,53.032c-13.414-1.255-24.3-2.51-32.193-3.452ZM71.8,212.654.473,199.631l9.311-64.014c14.361,1.726,38.663,4.393,68.963,6.747Zm10.1-17.416,42.766-13.179,5.208,41.107-49.868-9.1Zm-.473,36.243L148.5,243.72l-17.043,146.7-17.675-3.295ZM33.771,308.519l52.866-10.983,18.306,87.706-62.65-11.767ZM25.249,593.759l28.09-189.69L88.057,410.5,54.918,599.251Zm38.032,7.06,14.992-85.039,34.4,4.864-8.837,87.706ZM104.47,869.9l83.323,39.852-56.338,125.832-50.183-4.236ZM78.9,1047.979l131.771,11.14-2.209,38.754L70.225,1108.7Zm128.93,58.366-3,50.992-34.4-.941v-47.07ZM68.963,1117.171l93.107-7.374v46.128l-98.315-2.667Zm49.71,187.807L43.24,1294.937,54.6,1216.174l71.33,9.728Zm-62.808-97.12,3.945-26.829,70.225,2.04-3.156,34.674Zm96.737,101.67-25.565-3.452,7.259-78.92,26.354,3.608Zm8.837-87.078-26.512-3.608,3.314-35.459,27.143.785Zm37.559,93.2-29.668-3.922,8.048-79.39,27.3,1.569Zm-20.831-91.629,4.1-39.538,109.52,3.138,3.156,42.99Zm29.195,92.727,5.839-82.371,82.376,4.707,6.628,90.373Zm87.111-156.9-72.75-2.04,2.841-49.894L303.783,1128Zm-30.142-50.678,8.837-44.872,48.29,4.079-15.15,51.463Zm44.344,78.92,114.569,3.295,4.892,29.34-116.305,9.885Zm3.63,50.678,117.094-9.885,7.1,42.519-120.882,13.022Zm9,121.282-4.419-58.837,122.3-13.179,8.522,50.521Zm127.352-117.987-8.364-50.364,148.025,4.236c-3.156,12.709-8.522,32.164-15.939,55.542ZM617.98,1348.6l-55.391-21.025c3.472-8.316,6.786-16.474,9.784-24.633l58.232,13.65Zm-39.768-61.347a917.1,917.1,0,0,0,27.3-90.844l34.718.942,34.087,57.738-35.349,46.285Zm117.568,27.457-47.974-11.14,32.824-42.99,30.3,12.4Zm18.148-49.58L686,1253.673l32.035-41.892a56.388,56.388,0,0,0,13.1,6.433Zm17.359,1.569,16.412-44.873a31.861,31.861,0,0,0,3.945.157,61.349,61.349,0,0,0,19.41-3.138l19.884,40.166Zm21.3,68.565,7.1-63.857,35.034-4.55L819.5,1317.06Zm68.174-78.92-25.881-52.4a60.336,60.336,0,0,0,17.043-32.321l47.974,8.159Zm48.921,99-14.676-29.654,48.921-13.964,7.891,30.439Zm116.463-35.93-66.28,20.4-7.891-30.281,78.747-22.436Zm7.259-50.364L847.593,1310.47,825.5,1265.754l24.618-48.325,147.709,21.181Zm2.84,97.748,11.678-81.744,41.03,5.648-9.626,63.7Zm90.74-26.359-38.663,11.14,9.153-60.092,37.716,5.178Z" transform="translate(0 0.1)" fill="#299b5a"/>
  </g>
</svg>
